HIERARCHY
ROOT Hips
{
  OFFSET 0 119.972 0
  CHANNELS 6 Xposition Yposition Zposition Zrotation Xrotation Yrotation
  JOINT RightUpLeg
  {
    OFFSET -12.8929 0 0
    CHANNELS 3 Zrotation Xrotation Yrotation
    JOINT RightLeg
    {
      OFFSET 0 -60.3041 0
      CHANNELS 3 Zrotation Xrotation Yrotation
      JOINT RightFoot
      {
        OFFSET 0 -53.4221 0
        CHANNELS 3 Zrotation Xrotation Yrotation
        JOINT RightToeBase
        {
          OFFSET 0 -5.41187 17.795
          CHANNELS 3 Zrotation Xrotation Yrotation
          End Site
          {
            OFFSET 0 0 11.0798
          }
        }
      }
    }
  }
  JOINT LeftUpLeg
  {
    OFFSET 12.8929 0 0
    CHANNELS 3 Zrotation Xrotation Yrotation
    JOINT LeftLeg
    {
      OFFSET 0 -60.3041 0
      CHANNELS 3 Zrotation Xrotation Yrotation
      JOINT LeftFoot
      {
        OFFSET 0 -53.4221 0
        CHANNELS 3 Zrotation Xrotation Yrotation
        JOINT LeftToeBase
        {
          OFFSET 0 -5.41187 17.795
          CHANNELS 3 Zrotation Xrotation Yrotation
          End Site
          {
            OFFSET 0 0 11.0798
          }
        }
      }
    }
  }
  JOINT Spine
  {
    OFFSET 0 0.123189 0
    CHANNELS 3 Zrotation Xrotation Yrotation
    JOINT Spine1
    {
      OFFSET 0 41.8862 0
      CHANNELS 3 Zrotation Xrotation Yrotation
      JOINT RightShoulder
      {
        OFFSET 0 31.7409 0
        CHANNELS 3 Zrotation Xrotation Yrotation
        JOINT RightDummyShoulder
        {
          OFFSET 0 0 0
          CHANNELS 3 Zrotation Xrotation Yrotation
          JOINT RightArm
          {
            OFFSET -26.6195 -0.000158232 0
            CHANNELS 3 Zrotation Xrotation Yrotation
            JOINT RightForeArm
            {
              OFFSET -34.6831 -0.000156075 0
              CHANNELS 3 Zrotation Xrotation Yrotation
              JOINT RightHand
              {
                OFFSET -29.3377 -0.000116518 0
                CHANNELS 3 Zrotation Xrotation Yrotation
                End Site
                {
                  OFFSET -15.4188 0 0
                }
              }
            }
          }
        }
      }
      JOINT LeftShoulder
      {
        OFFSET 0 31.7409 0
        CHANNELS 3 Zrotation Xrotation Yrotation
        JOINT LeftDummyShoulder
        {
          OFFSET 0 0 0
          CHANNELS 3 Zrotation Xrotation Yrotation
          JOINT LeftArm
          {
            OFFSET 26.6195 -0.000158232 0
            CHANNELS 3 Zrotation Xrotation Yrotation
            JOINT LeftForeArm
            {
              OFFSET 34.6831 -0.000156075 0
              CHANNELS 3 Zrotation Xrotation Yrotation
              JOINT LeftHand
              {
                OFFSET 29.3377 -0.000116518 0
                CHANNELS 3 Zrotation Xrotation Yrotation
                End Site
                {
                  OFFSET 15.4188 0 0
                }
              }
            }
          }
        }
      }
      JOINT Neck
      {
        OFFSET 0 24.8104 0
        CHANNELS 3 Zrotation Xrotation Yrotation
        JOINT Head
        {
          OFFSET 0 21.3219 0
          CHANNELS 3 Zrotation Xrotation Yrotation
          End Site
          {
            OFFSET 0 17.7899 0
          }
        }
      }
    }
  }
}
MOTION
Frames:	12
Frame Time:	0.0333333
8.34604e-07 119.965 2.40925 0 0 -0 -2.04996e-05 0.436384 2.34592e-06 1.01487e-06 0.0625599 1.17135e-06 1.94575e-05 -0.498944 -2.05933e-06 6.67011e-09 -3.46393e-18 -5.95099e-08 0 0.436352 -0 -4.59221e-06 0.0625622 3.42136e-06 4.56246e-06 -0.498915 -4.0568e-06 -6.67011e-09 -1.48503e-16 1.91088e-06 0 0 -0 0 0 -0 0 0 -0 0 0 -0 0.000106513 -4.26903e-06 0.000126358 -0.000107306 -2.5609e-06 -0.000136972 7.92439e-07 6.83017e-06 1.03998e-05 5.33609e-08 0 -0 0 0 -0 -0.000120173 -1.7077e-06 -0.000134896 0.00012257 1.70799e-06 0.000143852 -2.44952e-06 1.91447e-13 -8.74267e-06 -1.70755e-06 0 -0 -2.03556e-13 0 -0 
-293.185 118.534 -560.873 1.91144 -5.79728 -1.12299 -6.65502 9.05635 -7.62627 2.77445 8.56948 -10.4834 3.73489 -8.47646 -6.95404 -1.74269e-06 -4.37752e-07 -5.01057e-06 1.11683 6.95651 2.09557 -1.11928 6.58752 8.58052 -3.1111 -3.00785 5.92769 9.59554e-07 2.8647e-07 1.72625e-06 -0.699482 3.24241 0.235831 -1.41576 6.48168 0.512606 0.0353989 -0.366553 -8.18443 -1.98785e-16 0 -1.59028e-15 13.6995 -5.41248 6.60403 -14.5584 -4.45287 16.6975 -2.94249 14.5015 -6.93928 0.774156 -0.102374 4.183 -1.49089e-16 -1.59028e-15 -0 -15.0237 -9.8836 -2.85917 14.4458 -4.72033 -17.7657 0.92058 31.0557 8.70679 -6.11258 7.87866 -1.93025 10.8089 -17.2402 -4.67219 
-293.188 118.534 -560.875 1.91144 -5.80099 -1.12299 -6.65411 9.05585 -7.60224 2.77401 8.57894 -10.4952 3.73803 -8.48097 -6.95449 -2.94914e-07 1.0773e-06 -1.58731e-06 1.11842 6.95952 2.08349 -1.1209 6.58586 8.59094 -3.10957 -3.00845 5.93205 1.12935e-06 -1.45058e-06 4.83294e-08 -0.699479 3.24325 0.235833 -1.41575 6.48335 0.512618 0.0417175 -0.366446 -8.17839 9.93923e-17 7.95139e-16 1.59028e-15 13.7046 -5.43959 6.58958 -14.5568 -4.45762 16.7152 -2.96388 14.5457 -6.93166 0.762428 -0.103389 4.19807 1.49089e-16 0 -7.95139e-16 -15.005 -9.91641 -2.88685 14.4309 -4.71117 -17.7561 0.931917 31.0434 8.69217 -6.10695 7.88641 -1.92378 10.7966 -17.2384 -4.66344 
-293.217 118.536 -560.89 1.90634 -5.83343 -1.11574 -6.63626 9.05435 -7.62003 2.76822 8.63281 -10.4891 3.7609 -8.51043 -6.94782 -1.46677e-06 -1.00996e-06 3.28497e-06 1.14064 6.97671 2.04868 -1.13111 6.60956 8.60742 -3.10434 -3.01594 5.94186 -5.23748e-07 -7.78552e-07 -1.70776e-06 -0.699813 3.25591 0.235995 -1.41652 6.50865 0.513119 0.0629811 -0.365992 -8.16139 0 0 -0 13.7301 -5.44478 6.55738 -14.5919 -4.47834 16.7389 -3.03774 14.4392 -6.89122 0.770984 -0.107052 4.24713 2.48481e-16 0 1.59028e-15 -15.0257 -10.0207 -2.94965 14.4417 -4.72527 -17.7885 1.02134 30.9933 8.68159 -6.12352 7.9354 -1.86762 10.8368 -17.272 -4.61301 
-293.244 118.538 -560.905 1.89983 -5.8567 -1.10395 -6.60782 9.05112 -7.63372 2.74907 8.6773 -10.4965 3.7436 -8.51439 -6.95344 -1.61761e-06 -7.33749e-07 8.22635e-06 1.17022 6.9596 2.12109 -1.14094 6.6699 8.54803 -3.14793 -3.02929 5.90054 3.19705e-07 -4.85693e-07 1.70614e-06 -0.700165 3.26021 0.239792 -1.41746 6.51719 0.520811 0.0608713 -0.369632 -8.20909 2.20695e-32 7.95139e-16 -1.59028e-15 13.7737 -5.44825 6.5615 -14.5905 -4.47574 16.7332 -3.04187 14.5098 -6.89237 0.749833 -0.107717 4.26084 -2.48481e-16 -1.59028e-15 -1.59028e-15 -14.9444 -10.0578 -3.01068 14.3947 -4.72127 -17.8398 1.08106 31.1297 8.62807 -6.09002 8.01084 -1.86845 10.8245 -17.2954 -4.60485 
-293.268 118.54 -560.917 1.89536 -5.90435 -1.09254 -6.59253 9.08422 -7.65498 2.74436 8.70736 -10.4995 3.76627 -8.53559 -6.95388 -2.36513e-06 -7.95053e-07 1.61126e-06 1.19445 7.00897 2.10334 -1.1561 6.66713 8.54849 -3.16096 -3.0084 5.90066 3.21788e-07 -4.96495e-07 3.39851e-06 -0.703861 3.27406 0.239745 -1.42495 6.54488 0.521117 0.0755917 -0.37172 -8.22766 -9.93923e-17 0 -0 13.7806 -5.54977 6.58038 -14.5168 -4.44288 16.7214 -3.03994 14.5625 -6.86789 0.742475 -0.110863 4.30619 4.96962e-17 -7.95139e-16 -0 -14.9358 -10.0233 -3.051 14.4364 -4.75614 -17.8971 1.25343 31.2142 8.48803 -6.10115 8.06988 -1.86548 10.8384 -17.3132 -4.60801 
-293.295 118.543 -560.936 1.89128 -5.94912 -1.0874 -6.57501 9.1049 -7.63713 2.74555 8.73353 -10.5104 3.75119 -8.543 -6.96021 -1.44553e-06 -5.7821e-07 -1.68844e-06 1.2135 7.02984 2.0844 -1.15943 6.6896 8.54752 -3.1645 -2.99903 5.89983 -5.86784e-07 -8.10061e-07 5.05852e-06 -0.708634 3.28844 0.238512 -1.43454 6.57364 0.519109 0.0945436 -0.370939 -8.20452 9.93923e-17 -7.95139e-16 -4.77083e-15 13.8204 -5.58966 6.56843 -14.5451 -4.45009 16.7097 -3.01361 14.4476 -6.90314 0.737992 -0.116439 4.38545 2.20695e-32 -7.95139e-16 1.59028e-15 -14.9045 -10.0413 -3.12887 14.4262 -4.7577 -17.9169 1.30909 31.2841 8.43929 -6.10312 8.08467 -1.85477 10.8578 -17.2801 -4.60278 
-293.321 118.546 -560.957 1.88677 -6.00211 -1.06419 -6.56103 9.14213 -7.64495 2.74813 8.75374 -10.5161 3.76077 -8.56555 -6.9624 -3.43782e-06 -1.73015e-06 -3.38968e-06 1.23505 7.06782 2.11467 -1.16122 6.70185 8.52037 -3.15282 -2.99472 5.88076 2.68433e-06 -3.66047e-07 -1.59103e-06 -0.712762 3.30755 0.245486 -1.44336 6.61178 0.533583 0.113485 -0.377996 -8.28361 -9.93923e-17 -7.95139e-16 3.18055e-15 13.8735 -5.71084 6.58841 -14.5475 -4.46091 16.7427 -3.02462 14.4983 -6.85761 0.740023 -0.116416 4.38113 1.98785e-16 7.95139e-16 -0 -14.9152 -10.2038 -3.17561 14.422 -4.76688 -17.9534 1.1587 31.2735 8.48799 -6.1083 8.08545 -1.88078 10.8711 -17.2216 -4.63784 
-293.352 118.548 -560.985 1.88242 -6.039 -1.04739 -6.53849 9.16161 -7.65086 2.7487 8.77091 -10.5275 3.74326 -8.56624 -6.96974 -1.77994e-06 -2.11914e-07 1.62575e-06 1.2526 7.07817 2.07407 -1.15208 6.7218 8.52728 -3.18353 -2.99323 5.88708 -2.61426e-07 -4.02385e-08 -1.90513e-06 -0.717134 3.31914 0.24868 -1.45239 6.63486 0.540402 0.138557 -0.382801 -8.32792 -9.93923e-17 -7.95139e-16 1.59028e-15 13.8745 -5.64749 6.59157 -14.5549 -4.46544 16.7489 -3.04265 14.5422 -6.86634 0.740602 -0.116148 4.38181 -1.49089e-16 7.95139e-16 -7.95139e-16 -14.9053 -10.2223 -3.18984 14.4232 -4.76956 -17.9615 1.15091 31.2857 8.4974 -6.08707 8.13598 -1.87549 10.8454 -17.213 -4.62758 
-293.383 118.55 -561.021 1.87922 -6.07872 -1.01886 -6.51155 9.17968 -7.65843 2.73992 8.7982 -10.545 3.73604 -8.57797 -6.98153 -2.49202e-06 -1.75952e-07 -1.70416e-06 1.28336 7.09525 2.01036 -1.17314 6.73275 8.54732 -3.18543 -2.98897 5.89899 5.36852e-07 -2.25907e-06 5.10665e-06 -0.722817 3.33611 0.251156 -1.46402 6.66873 0.545921 0.145855 -0.385587 -8.35953 -9.93923e-17 0 -0 13.9234 -5.68417 6.62327 -14.5571 -4.46193 16.7361 -2.99432 14.5007 -6.88016 0.740651 -0.116576 4.38652 9.93923e-17 -7.95139e-16 -0 -14.8973 -10.1438 -3.1628 14.4597 -4.79229 -17.9865 1.24506 31.1978 8.4636 -6.06451 8.19567 -1.85442 10.8449 -17.2151 -4.60199 
-293.411 118.552 -561.063 1.87339 -6.11287 -0.990966 -6.4844 9.18368 -7.68913 2.72936 8.82666 -10.5378 3.70239 -8.56964 -6.97746 -1.49258e-06 -1.01615e-06 3.28437e-06 1.30529 7.09174 1.96749 -1.17418 6.74622 8.56184 -3.17832 -2.96619 5.9091 1.24063e-06 -1.4367e-06 -5.02414e-06 -0.730043 3.35371 0.253699 -1.47878 6.70385 0.551683 0.164237 -0.389127 -8.39294 -9.93923e-17 -3.97569e-16 1.59028e-15 13.969 -5.77497 6.61982 -14.5387 -4.45635 16.7426 -2.98734 14.5801 -6.84998 0.737963 -0.11779 4.40322 -1.98785e-16 1.59028e-15 7.95139e-16 -14.9071 -10.2019 -3.20735 14.4594 -4.7944 -17.9948 1.28154 31.2105 8.45861 -6.03565 8.23973 -1.85162 10.8427 -17.1693 -4.59672 
-293.444 118.554 -561.11 1.85887 -6.15576 -0.97036 -6.44974 9.20343 -7.7054 2.72496 8.84094 -10.5345 3.72886 -8.58584 -6.98434 -1.91316e-06 4.10142e-07 -3.13491e-08 1.33826 7.10748 1.9128 -1.17409 6.75211 8.57329 -3.16706 -2.94222 5.91722 2.82697e-06 -4.1468e-07 3.49078e-06 -0.735755 3.37687 0.255705 -1.49052 6.75014 0.556366 0.183651 -0.392966 -8.42766 -1.98785e-16 1.19271e-15 -0 14 -5.75597 6.61305 -14.5652 -4.46048 16.7232 -2.98847 14.5376 -6.84018 0.732065 -0.117245 4.3956 1.98785e-16 -2.38542e-15 -7.95139e-16 -14.9433 -10.2271 -3.23681 14.5183 -4.82139 -18.0034 1.21956 31.1022 8.45683 -6.03684 8.2919 -1.8573 10.8856 -17.1477 -4.61115 
